#!OML:ASF X:\für Bonn\!DataBase\2005_08_10_Bjorn_Final\c3d\bjorn.ASF
:FULLY-SPECIFIED
:DEGREES
94
root -1.78714 18.4279 13.8214 -185.651 19.1605 177.713
lowerback -9.54533 2.7145 -0.165767
upperback 7.4794 4.47746 -3.02313
thorax 13.8662 2.44377 -2.2519
lowerneck -5.87866 2.35755 5.39314
upperneck 12.5213 3.44723 -4.15342
head 4.88256 1.80938 -1.95283
rclavicle -1.39149e-015 2.38542e-014
rhumerus 47.0148 21.4946 -75.4646
rradius 91.7757
rwrist 36.6905
rhand -49.3533 11.5704
rfingers 7.12502
rthumb -21.9683 -17.2021
lclavicle -1.39149e-015 2.38542e-014
lhumerus 37.1413 -22.3527 84.2093
lradius 78.0164
lwrist 49.5583
lhand -48.0304 -5.22523
lfingers 7.12502
lthumb -20.6976 23.6911
rfemur 547.679 -169.252 -528.297
rtibia 29.344
rfoot -29.3187 5.20668
rtoes -26.1274
lfemur 339.24 6.99148 347.564
ltibia 39.9408
lfoot -9.65807 -2.36694
ltoes -18.2897
95
root -1.77747 18.4408 13.8654 -185.66 19.1107 177.647
lowerback -9.59758 2.69425 -0.133375
upperback 7.51704 4.44848 -3.01354
thorax 13.9438 2.43338 -2.26267
lowerneck -5.91879 2.40849 5.42981
upperneck 12.1565 3.49754 -4.32377
head 4.78327 1.81498 -2.00923
rclavicle 2.88238e-015 2.8625e-014
rhumerus 47.1676 21.5227 -75.3201
rradius 91.84
rwrist 36.6836
rhand -49.2463 11.4779
rfingers 7.12502
rthumb -21.8655 -17.3067
lclavicle 2.88238e-015 2.8625e-014
lhumerus 36.9507 -22.3752 84.3056
lradius 78.2119
lwrist 49.5642
lhand -48.0259 -5.17962
lfingers 7.12502
lthumb -20.6933 23.7372
rfemur 547.509 -169.183 -528.272
rtibia 29.4003
rfoot -29.2696 5.23183
rtoes -26.0177
lfemur 339.298 6.79022 347.522
ltibia 39.5901
lfoot -9.6523 -2.68516
ltoes -18.3187
96
root -1.76857 18.4517 13.9086 -185.67 19.0786 177.591
lowerback -9.62927 2.6738 -0.0906439
upperback 7.56112 4.41857 -3.00547
thorax 14.0172 2.4243 -2.28196
lowerneck -5.9627 2.47446 5.46473
upperneck 11.7379 3.56475 -4.5035
head 4.66945 1.82768 -2.06722
rclavicle 8.84592e-015 2.3059e-014
rhumerus 47.3456 21.5533 -75.1823
rradius 91.899
rwrist 36.6848
rhand -49.2085 11.3622
rfingers 7.12502
rthumb -21.8292 -17.4267
lclavicle 8.84592e-015 2.3059e-014
lhumerus 36.8018 -22.4201 84.3337
lradius 78.4603
lwrist 49.6378
lhand -48.0669 -5.2874
lfingers 7.12502
lthumb -20.7327 23.6251
rfemur 547.339 -169.091 -528.257
rtibia 29.4638
rfoot -29.1998 5.29197
rtoes -25.9157
lfemur 339.361 6.57887 347.489
ltibia 39.2594
lfoot -9.66891 -3.06502
ltoes -18.3404
97
root -1.7604 18.4614 13.9517 -185.668 19.0393 177.556
lowerback -9.62316 2.66141 -0.040492
upperback 7.57247 4.39303 -2.99638
thorax 14.0286 2.41677 -2.30572
lowerneck -5.93331 2.52618 5.51763
upperneck 11.3102 3.61226 -4.64996
head 4.53964 1.83602 -2.11983
rclavicle 3.80673e-014 -6.52014e-014
rhumerus 47.4396 21.5804 -75.0779
rradius 91.97
rwrist 36.6319
rhand -49.1403 11.3032
rfingers 7.12502
rthumb -21.7637 -17.4932
lclavicle 3.80673e-014 -6.52014e-014
lhumerus 36.5989 -22.509 84.3846
lradius 78.7208
lwrist 49.7723
lhand -48.0663 -5.52452
lfingers 7.12502
lthumb -20.7321 23.388
rfemur 547.162 -169.025 -528.208
rtibia 29.5371
rfoot -29.1557 5.352
rtoes -25.7414
lfemur 339.397 6.33868 347.474
ltibia 38.9531
lfoot -9.7067 -3.48545
ltoes -18.3715
98
root -1.75213 18.4711 13.9939 -185.67 19.0108 177.52
lowerback -9.58345 2.66187 0.00548777
upperback 7.57075 4.38401 -2.98883
thorax 14.004 2.41657 -2.32694
lowerneck -5.95289 2.57163 5.56245
upperneck 10.9442 3.65245 -4.78569
head 4.43651 1.84186 -2.16749
rclavicle 8.74653e-015 -4.53229e-014
rhumerus 47.5125 21.6111 -74.9458
rradius 92.0083
rwrist 36.5103
rhand -49.1804 11.2967
rfingers 7.12502
rthumb -21.8022 -17.4953
lclavicle 8.74653e-015 -4.53229e-014
lhumerus 36.3508 -22.6464 84.4293
lradius 79.053
lwrist 50.0215
lhand -48.037 -5.94357
lfingers 7.12502
lthumb -20.704 22.9721
rfemur 546.981 -168.923 -528.175
rtibia 29.6238
rfoot -29.1092 5.44057
rtoes -25.5912
lfemur 339.435 6.08343 347.459
ltibia 38.6657
lfoot -9.75128 -3.92139
ltoes -18.4516
99
root -1.74486 18.4786 14.0358 -185.66 18.9891 177.52
lowerback -9.51143 2.65184 0.0658461
upperback 7.55087 4.35107 -2.95946
thorax 13.9351 2.40378 -2.33923
lowerneck -5.9474 2.61938 5.58829
upperneck 10.5743 3.70125 -4.93156
head 4.32854 1.85203 -2.21491
rclavicle 1.98785e-015 -1.51076e-014
rhumerus 47.5556 21.7013 -74.8307
rradius 92.0615
rwrist 36.3615
rhand -49.1913 11.2949
rfingers 7.12502
rthumb -21.8127 -17.4958
lclavicle 1.98785e-015 -1.51076e-014
lhumerus 36.0125 -22.7578 84.5211
lradius 79.4889
lwrist 50.1939
lhand -48.0454 -6.20453
lfingers 7.12502
lthumb -20.712 22.7102
rfemur 546.797 -168.807 -528.111
rtibia 29.7175
rfoot -29.0568 5.50326
rtoes -25.4623
lfemur 339.458 5.83712 347.481
ltibia 38.404
lfoot -9.77215 -4.38385
ltoes -18.496
100
root -1.73815 18.4859 14.0765 -185.651 18.9776 177.517
lowerback -9.429 2.65756 0.146997
upperback 7.53108 4.34041 -2.95034
thorax 13.8649 2.40546 -2.38105
lowerneck -5.94723 2.65463 5.61369
upperneck 10.1875 3.72672 -5.03828
head 4.21463 1.85284 -2.25155
rclavicle -4.08502e-014 5.1684e-014
rhumerus 47.5824 21.7685 -74.7278
rradius 92.1294
rwrist 36.1273
rhand -49.2079 11.3238
rfingers 7.12502
rthumb -21.8287 -17.465
lclavicle -4.08502e-014 5.1684e-014
lhumerus 35.6597 -22.9256 84.5826
lradius 80.0112
lwrist 50.4044
lhand -48.0921 -6.40271
lfingers 7.12502
lthumb -20.7569 22.5071
rfemur 546.611 -168.718 -528.049
rtibia 29.8176
rfoot -29.0174 5.59888
rtoes -25.2894
lfemur 339.477 5.53741 347.503
ltibia 38.1549
lfoot -9.80025 -4.81612
ltoes -18.4475
101
root -1.73053 18.4924 14.1163 -185.642 18.98 177.555
lowerback -9.32387 2.6628 0.241435
upperback 7.51159 4.32486 -2.92906
thorax 13.7804 2.40518 -2.41896
lowerneck -6.01287 2.6999 5.68615
upperneck 9.87472 3.76571 -5.17634
head 4.13663 1.86069 -2.30372
rclavicle 7.55382e-015 3.18055e-015
rhumerus 47.6059 21.8592 -74.6226
rradius 92.1816
rwrist 35.9989
rhand -49.2182 11.113
rfingers 7.12502
rthumb -21.8386 -17.6748
lclavicle 7.55382e-015 3.18055e-015
lhumerus 35.2786 -23.1081 84.6278
lradius 80.5939
lwrist 50.586
lhand -48.1384 -6.5429
lfingers 7.12502
lthumb -20.8014 22.3621
rfemur 546.441 -168.687 -527.922
rtibia 29.9126
rfoot -28.9784 5.64981
rtoes -25.1172
lfemur 339.502 5.28546 347.572
ltibia 37.9234
lfoot -9.77964 -5.3261
ltoes -18.3404
102
root -1.72386 18.4991 14.1555 -185.62 18.9858 177.605
lowerback -9.22986 2.66948 0.344862
upperback 7.50657 4.30915 -2.89065
thorax 13.7192 2.40466 -2.44228
lowerneck -6.11844 2.72472 5.65238
upperneck 9.55655 3.77839 -5.25581
head 4.05929 1.8542 -2.32158
rclavicle 3.72721e-014 -2.46493e-014
rhumerus 47.6562 21.9641 -74.4778
rradius 92.2559
rwrist 35.8113
rhand -49.2469 10.8964
rfingers 7.12502
rthumb -21.8661 -17.8881
lclavicle 3.72721e-014 -2.46493e-014
lhumerus 34.9212 -23.2979 84.711
lradius 81.1934
lwrist 50.6535
lhand -48.181 -6.46057
lfingers 7.12502
lthumb -20.8423 22.4399
rfemur 546.268 -168.618 -527.8
rtibia 30.006
rfoot -28.9453 5.74569
rtoes -24.8442
lfemur 339.52 4.96786 347.659
ltibia 37.6924
lfoot -9.75206 -5.84379
ltoes -18.232
103
root -1.71675 18.5048 14.1943 -185.602 18.9967 177.659
lowerback -9.08804 2.679 0.454936
upperback 7.46777 4.29615 -2.87647
thorax 13.5913 2.40687 -2.49828
lowerneck -6.17313 2.75483 5.70105
upperneck 9.26034 3.79676 -5.34518
head 3.98225 1.85487 -2.35613
rclavicle 4.96962e-016 -3.4191e-014
rhumerus 47.6084 22.0926 -74.4359
rradius 92.3359
rwrist 35.6789
rhand -49.2718 10.5622
rfingers 7.12502
rthumb -21.89 -18.2195
lclavicle 4.96962e-016 -3.4191e-014
lhumerus 34.5493 -23.5286 84.742
lradius 81.7931
lwrist 50.6603
lhand -48.2795 -6.21445
lfingers 7.12502
lthumb -20.9369 22.6756
rfemur 546.107 -168.598 -527.65
rtibia 30.0936
rfoot -28.9418 5.79382
rtoes -24.686
lfemur 339.535 4.67327 347.753
ltibia 37.4615
lfoot -9.66386 -6.40902
ltoes -18.2129
104
root -1.71015 18.5117 14.2315 -185.549 19.0186 177.68
lowerback -9.02287 2.69914 0.541298
upperback 7.45544 4.30893 -2.88027
thorax 13.5443 2.42125 -2.55133
lowerneck -6.26902 2.77826 5.73894
upperneck 8.88953 3.79666 -5.41456
head 3.888 1.84531 -2.38356
rclavicle 4.09496e-014 -1.43125e-014
rhumerus 47.5178 22.2005 -74.4247
rradius 92.5352
rwrist 35.5783
rhand -49.2792 10.2221
rfingers 7.12502
rthumb -21.8972 -18.5587
lclavicle 4.09496e-014 -1.43125e-014
lhumerus 34.3041 -23.8015 84.7497
lradius 82.3657
lwrist 50.6204
lhand -48.4553 -5.92773
lfingers 7.12502
lthumb -21.1058 22.9436
rfemur 545.89 -168.604 -527.525
rtibia 30.1825
rfoot -28.8995 5.85466
rtoes -24.314
lfemur 339.516 4.34922 347.812
ltibia 37.2189
lfoot -9.51997 -6.95912
ltoes -18.1525
105
root -1.70291 18.5187 14.268 -185.495 19.0545 177.715
lowerback -8.93502 2.70658 0.610089
upperback 7.43281 4.30116 -2.85932
thorax 13.4658 2.42159 -2.57293
lowerneck -6.316 2.79713 5.76826
upperneck 8.47536 3.79937 -5.54199
head 3.77365 1.83575 -2.42792
rclavicle -6.59965e-014 3.65764e-014
rhumerus 47.4859 22.383 -74.3763
rradius 92.6409
rwrist 35.4638
rhand -49.401 9.85347
rfingers 7.12502
rthumb -22.0141 -18.9137
lclavicle -6.59965e-014 3.65764e-014
lhumerus 34.0639 -24.0214 84.8
lradius 82.9145
lwrist 50.5177
lhand -48.5784 -5.61797
lfingers 7.12502
lthumb -21.2241 23.2401
rfemur 545.681 -168.591 -527.387
rtibia 30.2634
rfoot -28.8747 5.8895
rtoes -24.1779
lfemur 339.513 4.0197 347.901
ltibia 36.9561
lfoot -9.28641 -7.53093
ltoes -17.7757
106
root -1.69574 18.525 14.3042 -185.438 19.0818 177.743
lowerback -8.83434 2.72023 0.677016
upperback 7.40705 4.30547 -2.85685
thorax 13.3781 2.42908 -2.6119
lowerneck -6.35502 2.79847 5.79668
upperneck 8.05756 3.77637 -5.63924
head 3.65497 1.81566 -2.4644
rclavicle 8.80616e-014 -4.45278e-014
rhumerus 47.4584 22.5343 -74.3252
rradius 92.7345
rwrist 35.3477
rhand -49.5844 9.58098
rfingers 7.12502
rthumb -22.1901 -19.1654
lclavicle 8.80616e-014 -4.45278e-014
lhumerus 33.8656 -24.2953 84.8244
lradius 83.4161
lwrist 50.4072
lhand -48.6804 -5.56879
lfingers 7.12502
lthumb -21.3221 23.2782
rfemur 545.474 -168.613 -527.248
rtibia 30.3364
rfoot -28.8515 5.90894
rtoes -23.9517
lfemur 339.502 3.70631 347.978
ltibia 36.6712
lfoot -8.92195 -8.23069
ltoes -17.1043
107
root -1.68876 18.5344 14.3385 -185.348 19.1428 177.757
lowerback -8.77679 2.75027 0.738327
upperback 7.37138 4.33336 -2.86476
thorax 13.3081 2.44709 -2.65257
lowerneck -6.445 2.78815 5.83503
upperneck 7.72482 3.73748 -5.71586
head 3.56938 1.78911 -2.49617
rclavicle -1.05356e-014 -1.74931e-014
rhumerus 47.4138 22.6701 -74.3151
rradius 92.7953
rwrist 35.2941
rhand -49.9339 9.46106
rfingers 7.12502
rthumb -22.5257 -19.245
lclavicle -1.05356e-014 -1.74931e-014
lhumerus 33.6823 -24.607 84.8327
lradius 83.9185
lwrist 50.3073
lhand -48.7392 -5.73632
lfingers 7.12502
lthumb -21.3786 23.1043
rfemur 545.234 -168.651 -527.112
rtibia 30.3903
rfoot -28.8092 5.90475
rtoes -23.8545
lfemur 339.473 3.30672 348.06
ltibia 36.3621
lfoot -8.34994 -8.95672
ltoes -15.2265
108
root -1.68134 18.5431 14.371 -185.251 19.2277 177.788
lowerback -8.7292 2.7862 0.810488
upperback 7.33938 4.3663 -2.86217
thorax 13.249 2.46759 -2.68631
lowerneck -6.59493 2.78634 5.8472
upperneck 7.50717 3.71526 -5.77439
head 3.5286 1.77096 -2.51616
rclavicle 4.02539e-014 -1.51076e-014
rhumerus 47.384 22.806 -74.3252
rradius 92.852
rwrist 35.2595
rhand -50.3358 9.4029
rfingers 7.12502
rthumb -22.9113 -19.2559
lclavicle 4.02539e-014 -1.51076e-014
lhumerus 33.5249 -24.9199 84.8419
lradius 84.4486
lwrist 50.2644
lhand -48.8188 -5.93166
lfingers 7.12502
lthumb -21.455 22.9003
rfemur 545.003 -168.693 -526.968
rtibia 30.4267
rfoot -28.7556 5.99773
rtoes -23.5924
lfemur 339.453 2.98127 348.156
ltibia 36.0357
lfoot -7.78091 -9.58995
ltoes -13.6966
